<?xml version="1.0" encoding="UTF-8" standalone="no"?>
<!DOCTYPE svg PUBLIC "-//W3C//DTD SVG 1.1//EN" "http://www.w3.org/Graphics/SVG/1.1/DTD/svg11.dtd">
<svg width="100%" height="100%" viewBox="0 0 4267 4267" version="1.1" xmlns="http://www.w3.org/2000/svg" xmlns:xlink="http://www.w3.org/1999/xlink" xml:space="preserve" xmlns:serif="http://www.serif.com/" style="fill-rule:evenodd;clip-rule:evenodd;stroke-linejoin:round;stroke-miterlimit:2;">
    <g id="Page-1" serif:id="Page 1" transform="matrix(4.166667,0,0,4.166667,0,0)">
        <rect x="0" y="0" width="1024" height="1024" style="fill:none;"/>
        <g id="_4---Layer" serif:id="4 – Layer">
            <g transform="matrix(0.875,0,0,0.875,960.39337,389.981577)">
                <g id="Border-1" serif:id="Border 1">
                    <path d="M0,278C0,292.243 0.006,306.483 -0.084,320.726C-0.153,332.722 -0.291,344.716 -0.616,356.709C-1.325,382.843 -2.863,409.203 -7.508,435.047C-12.221,461.264 -19.912,485.664 -32.037,509.484C-43.954,532.897 -59.526,554.321 -78.102,572.898C-96.679,591.474 -118.103,607.046 -141.516,618.963C-165.336,631.088 -189.736,638.779 -215.953,643.492C-241.797,648.137 -268.157,649.675 -294.291,650.384C-306.284,650.709 -318.278,650.847 -330.274,650.916C-344.517,651.006 -358.757,651 -373,651L-651,651C-665.243,651 -679.483,651.006 -693.726,650.916C-705.722,650.847 -717.716,650.709 -729.709,650.384C-755.842,649.675 -782.203,648.137 -808.046,643.492C-834.264,638.779 -858.664,631.088 -882.484,618.963C-905.896,607.046 -927.321,591.474 -945.897,572.898C-964.474,554.321 -980.045,532.897 -991.963,509.484C-1004.087,485.664 -1011.779,461.264 -1016.491,435.047C-1021.137,409.203 -1022.675,382.843 -1023.383,356.709C-1023.709,344.716 -1023.847,332.722 -1023.916,320.726C-1024.006,306.483 -1024,292.243 -1024,278L-1024,0C-1024,-14.243 -1024.006,-28.483 -1023.916,-42.726C-1023.847,-54.722 -1023.709,-66.716 -1023.383,-78.709C-1022.675,-104.842 -1021.137,-131.203 -1016.491,-157.046C-1011.779,-183.264 -1004.087,-207.664 -991.963,-231.484C-980.045,-254.896 -964.474,-276.321 -945.897,-294.897C-927.321,-313.474 -905.896,-329.045 -882.484,-340.963C-858.664,-353.087 -834.264,-360.779 -808.046,-365.491C-782.203,-370.137 -755.842,-371.675 -729.709,-372.384C-717.716,-372.709 -705.722,-372.847 -693.726,-372.916C-679.483,-373.006 -665.243,-373 -651,-373L-373,-373C-358.757,-373 -344.517,-373.006 -330.274,-372.916C-318.278,-372.847 -306.284,-372.709 -294.291,-372.384C-268.157,-371.675 -241.797,-370.137 -215.953,-365.491C-189.736,-360.779 -165.336,-353.087 -141.516,-340.963C-118.103,-329.045 -96.679,-313.474 -78.102,-294.897C-59.526,-276.321 -43.954,-254.896 -32.037,-231.484C-19.912,-207.664 -12.221,-183.264 -7.508,-157.046C-2.863,-131.203 -1.325,-104.842 -0.616,-78.709C-0.291,-66.716 -0.153,-54.722 -0.084,-42.726C0.006,-28.483 0,-14.243 0,0L0,278ZM-1097.593,724.593L72.693,724.593L72.693,-445.693L-1097.593,-445.693L-1097.593,724.593Z" style="fill:rgb(134,134,134);fill-rule:nonzero;"/>
                </g>
            </g>
        </g>
    </g>
</svg>
